<svg viewBox='0 0 200 200' xmlns='http://www.w3.org/2000/svg'>
    <g fill="#fff">
        <path d="M0,0 l200,0 0,200, -200,0"/>
    </g>

    <g fill='#ccc' stroke='#f00' stroke-linejoin="bevel" stroke-width="5">
        <path d="M10,10 l0,50 l50,0 l0,50 l50,0 z"/>
    </g>
    <g fill='#ccc' stroke='#f00' stroke-linecap="round" stroke-linejoin="round" stroke-width="5">
        <path d="M120, 10 l0,50 l50,0"/>
    </g>

    <g fill='#f0f' stroke='#0ff' stroke-linecap="square" stroke-linejoin="miter" stroke-width="5" paint-order="stroke">
        <path d="M10,110 l0,50 l50,0 c50,50 100,10, 50,-10"/>
    </g>

    <g fill="#ff0" fill-opacity="0.4">
        <rect x="10" y="10" width="100" height="120"/>
    </g>

    <ellipse cx="180" cy="90" rx="50" ry="20" fill="#ff0" stroke="#004" stroke-width="2"/>
    <circle cx="140" cy="140" r="10" stroke="#000" stroke-width="3" fill="#f00"/>

    <polygon points="190,10 130,190 160,170" fill="#4CFF6F" stroke="#FF67F6" stroke-width="1"/>
    <polyline points="0,40 40,40 40,80 80,80 80,120 120,120 120,160" fill="none" stroke="#FF07F6" stroke-width="3"
              stroke-linejoin="round"/>
    <line x1="100" y1="0" x2="180" y2="180" stroke="#c00" stroke-linecap="round" stroke-width="3"/>
</svg>
